<?xml version="1.0" encoding="utf-8"?>
<!-- Generator: Adobe Illustrator 26.0.1, SVG Export Plug-In . SVG Version: 6.00 Build 0)  -->
<svg version="1.1" id="レイヤー_1" xmlns="http://www.w3.org/2000/svg" xmlns:xlink="http://www.w3.org/1999/xlink" x="0px"
	 y="0px" viewBox="0 0 136 29" style="enable-background:new 0 0 136 29;" xml:space="preserve">
<style type="text/css">
	.st0{fill:#191919;}
</style>
<g>
	<path class="st0" d="M55.6,25.4c-0.1-0.2-0.8-1.2-1-1.5v-0.2h1V23h-1v-1.5h-0.7V23h-1.1v0.7h1c-0.2,1-0.7,2.2-1.2,2.9
		c0.1,0.2,0.3,0.5,0.4,0.7c0.3-0.5,0.6-1.2,0.9-2v3.5h0.7v-4c0.2,0.4,0.4,0.8,0.5,1.1L55.6,25.4z M60,25.5v-0.7h-1.8v-1.3h1.5v-0.7
		h-1.5v-1.4h-0.7v1.4h-0.7c0.1-0.3,0.1-0.6,0.2-0.9l-0.7-0.1c-0.1,0.9-0.4,1.8-0.8,2.4c0.2,0.1,0.5,0.3,0.6,0.4
		c0.2-0.3,0.4-0.7,0.5-1.1h0.9v1.3h-1.8v0.7h1.4c-0.4,1-1.2,1.8-1.9,2.3c0.2,0.1,0.4,0.4,0.5,0.6c0.7-0.5,1.3-1.3,1.8-2.3v2.7h0.7
		v-2.7c0.4,0.9,0.9,1.8,1.4,2.3c0.1-0.2,0.4-0.4,0.5-0.6c-0.6-0.5-1.2-1.4-1.6-2.3L60,25.5z M63.2,25.4h1.4v-0.7h-3.5v0.7h1.3v2.1
		c-0.6,0.1-1.2,0.2-1.6,0.3l0.2,0.8c1-0.2,2.5-0.5,3.8-0.8l-0.1-0.7c-0.5,0.1-1.1,0.2-1.6,0.3V25.4z M66,21.9c0.4,0.3,0.9,0.7,1.1,1
		l0.5-0.5c-0.2-0.3-0.7-0.7-1.1-0.9L66,21.9z M67.9,23.6v-0.7h-2.3c0-0.4,0-0.9,0-1.4h-0.8c0,0.5,0,0.9,0,1.4h-4v0.7h4.1
		c0.2,2.9,0.8,5.2,2.2,5.2c0.7,0,0.9-0.4,1.1-1.8c-0.2-0.1-0.5-0.2-0.7-0.4c0,1-0.1,1.5-0.3,1.5c-0.7,0-1.3-1.9-1.4-4.4H67.9z
		 M70.6,23.9c0.7-0.5,1.3-1.1,1.7-1.7c0.4,0.6,1.1,1.2,1.8,1.7H70.6z M70.5,24.6h3.7V24c0.5,0.3,1,0.6,1.4,0.8
		c0.1-0.2,0.3-0.5,0.5-0.7c-1.2-0.5-2.6-1.5-3.4-2.6h-0.8c-0.6,1-1.9,2.1-3.3,2.8c0.2,0.2,0.4,0.4,0.4,0.6c0.5-0.2,1-0.5,1.4-0.8
		V24.6z M69.1,26.1h2c-0.2,0.5-0.5,1.2-0.7,1.7l-1.2,0l0.1,0.7c1.4-0.1,3.4-0.1,5.3-0.2c0.1,0.2,0.3,0.4,0.4,0.5l0.7-0.4
		c-0.4-0.6-1.1-1.4-1.9-2.1l-0.6,0.3c0.3,0.3,0.6,0.6,0.9,1c-1,0-2,0.1-2.9,0.1c0.3-0.5,0.6-1.1,0.8-1.6h3.7v-0.7h-6.6L69.1,26.1z
		 M80.1,26c-0.2-0.2-0.8-0.7-1.2-1c0.4-0.5,0.8-1.1,1-1.7l-0.4-0.3l-0.1,0h-0.6v-1.5H78v1.5h-1.2v0.7h2.1c-0.5,1-1.5,1.9-2.4,2.4
		c0.1,0.1,0.3,0.5,0.4,0.7c0.4-0.2,0.8-0.5,1.1-0.9v3h0.7v-3.2c0.3,0.3,0.7,0.7,0.9,0.9L80.1,26z M82.3,27.8v-3.1h1.6V24h-1.6v-2.5
		h-0.8V24h-1.6v0.7h1.6v3.1h-1.9v0.7h4.5v-0.7H82.3z M92.4,23.8h-2v-0.4H92V23h-1.6v-0.4h-0.7V23h-1.5v0.4h1.5v0.4h-1.9v0.4h4.6
		V23.8z M90.5,25.9h1.2c-0.2,0.2-0.4,0.3-0.6,0.5C90.9,26.3,90.7,26.1,90.5,25.9L90.5,25.9z M89,25h2.4v0.5H89V25z M92,25.8v-1.2
		h-3.7v1.4h1.4c-0.5,0.4-1.3,0.7-2,1c0.1,0.1,0.3,0.4,0.4,0.5c0.5-0.2,1.1-0.5,1.6-0.8v1h0.7v-1.1c0.5,0.5,1.2,0.9,1.9,1.1
		c0.1-0.1,0.3-0.4,0.4-0.5c-0.4-0.1-0.8-0.2-1.1-0.4c0.3-0.2,0.6-0.4,0.9-0.6L92,25.8z M87.5,27.8v-5.4h5.2v5.4H87.5z M86.8,21.8v7
		h0.7v-0.3h5.2v0.3h0.7v-7H86.8z M96.7,26.5h-0.4v-4.9h-0.6v4.9h-0.4v-3.7h-0.5v5.1h0.5v-0.7h1.4v0.5h0.5v-4.8h-0.5L96.7,26.5z
		 M99.4,26v0.8h-1V26H99.4z M100,27.4v-1.9h-2.2v2.3h0.6v-0.4H100z M97.8,24.4c0.9-0.2,1.4-0.5,1.7-0.9c0.6,0.3,1.2,0.7,1.6,0.9
		H97.8z M101.8,24.4h-0.6l0.4-0.5c-0.4-0.3-1.2-0.7-1.9-1c0-0.1,0-0.1,0-0.2h1.8v-0.6h-1.7c0-0.2,0-0.4,0-0.6h-0.7
		c0,0.2,0,0.5,0,0.6h-1.7v0.6h1.6c-0.2,0.6-0.7,0.9-1.7,1.1c0.1,0.1,0.3,0.4,0.4,0.5h-0.5V25h3.3v3c0,0.1,0,0.2-0.2,0.2
		c-0.1,0-0.6,0-1,0c0.1,0.2,0.2,0.5,0.3,0.7c0.6,0,1,0,1.3-0.1c0.3-0.1,0.4-0.3,0.4-0.7v-3h0.5L101.8,24.4z M102.8,26
		c-0.1,0.7-0.2,1.4-0.5,1.9c0.2,0.1,0.4,0.2,0.6,0.3c0.2-0.5,0.4-1.3,0.5-2L102.8,26z M105,25.5c0.1,0.2,0.1,0.3,0.1,0.4l0.6-0.3
		c-0.1-0.4-0.4-1.1-0.8-1.6l-0.5,0.2c0.1,0.2,0.2,0.4,0.3,0.6l-1.1,0c0.5-0.7,1.1-1.5,1.6-2.3l-0.6-0.3c-0.2,0.4-0.5,0.9-0.8,1.4
		c-0.1-0.1-0.2-0.3-0.4-0.5c0.3-0.4,0.6-1.1,0.9-1.6l-0.7-0.2c-0.1,0.4-0.4,1-0.7,1.4c-0.1-0.1-0.1-0.1-0.2-0.2l-0.4,0.5
		c0.4,0.3,0.8,0.8,1,1.1c-0.2,0.2-0.3,0.4-0.5,0.6l-0.6,0l0.1,0.7c0.4,0,0.8,0,1.2-0.1v3.3h0.7v-3.3L105,25.5z M104.6,26.2
		c0.2,0.5,0.4,1.1,0.5,1.5l0.6-0.2c-0.1-0.4-0.3-1-0.5-1.5L104.6,26.2z M106.7,26.5h1.8v1.4h-1.8V26.5z M108.5,22.6v1.3h-1.8v-1.3
		H108.5z M108.5,25.9h-1.8v-1.3h1.8V25.9z M109.3,27.9v-6H106v6h-0.8v0.7h4.6v-0.7H109.3z"/>
	<path class="st0" d="M36,8.4h-3.1V7.4c0-0.4,0-0.7-0.1-0.8s-0.2-0.2-0.4-0.2c-0.2,0-0.3,0.1-0.5,0.2c-0.1,0.2-0.1,0.4-0.1,0.7
		c0,0.4,0.1,0.7,0.2,1c0.1,0.2,0.4,0.5,0.9,0.8c1.5,0.9,2.4,1.6,2.8,2.1s0.6,1.5,0.6,2.7c0,0.9-0.1,1.6-0.3,2
		c-0.2,0.4-0.6,0.8-1.2,1.1c-0.6,0.3-1.3,0.4-2.1,0.4c-0.9,0-1.6-0.2-2.3-0.5c-0.6-0.3-1-0.8-1.2-1.3s-0.3-1.2-0.3-2.2v-0.8h3.1v1.5
		c0,0.5,0,0.8,0.1,0.9c0.1,0.1,0.2,0.2,0.5,0.2s0.4-0.1,0.5-0.3c0.1-0.2,0.2-0.4,0.2-0.8c0-0.7-0.1-1.2-0.3-1.5
		c-0.2-0.2-0.7-0.6-1.5-1.1c-0.8-0.5-1.4-0.9-1.6-1.2s-0.5-0.6-0.7-1c-0.2-0.4-0.3-1-0.3-1.7c0-1,0.1-1.7,0.4-2.1
		c0.2-0.4,0.7-0.8,1.2-1c0.6-0.3,1.2-0.4,2-0.4c0.9,0,1.6,0.1,2.2,0.4c0.6,0.3,1,0.6,1.2,1C35.9,6.1,36,6.9,36,7.9L36,8.4z
		 M44.8,11.9c0,1.3,0,2.2-0.1,2.7c-0.1,0.5-0.2,1-0.6,1.4c-0.3,0.4-0.7,0.8-1.3,1c-0.5,0.2-1.2,0.4-1.9,0.4c-0.7,0-1.3-0.1-1.8-0.3
		c-0.5-0.2-1-0.6-1.3-1c-0.3-0.4-0.5-0.9-0.6-1.4s-0.1-1.4-0.1-2.7V9.8c0-1.3,0-2.2,0.1-2.7c0.1-0.5,0.2-1,0.6-1.5
		c0.3-0.4,0.7-0.8,1.3-1c0.5-0.2,1.2-0.4,1.9-0.4c0.7,0,1.3,0.1,1.8,0.3c0.5,0.2,1,0.5,1.3,1C44.5,6,44.7,6.5,44.7,7
		c0.1,0.5,0.1,1.4,0.1,2.7V11.9z M41.5,7.8c0-0.6,0-1-0.1-1.1c-0.1-0.2-0.2-0.2-0.4-0.2c-0.2,0-0.3,0.1-0.4,0.2
		c-0.1,0.1-0.1,0.5-0.1,1.2v5.9c0,0.7,0,1.2,0.1,1.4c0.1,0.2,0.2,0.3,0.4,0.3c0.2,0,0.4-0.1,0.4-0.3s0.1-0.7,0.1-1.4L41.5,7.8z
		 M53.4,4.5v12.6h-2.9l-1.7-5.8v5.8h-2.8V4.5h2.8l1.8,5.7V4.5L53.4,4.5z M62.2,11.9c0,1.3,0,2.2-0.1,2.7c-0.1,0.5-0.2,1-0.6,1.4
		c-0.3,0.4-0.7,0.8-1.3,1c-0.5,0.2-1.2,0.4-1.9,0.4c-0.7,0-1.3-0.1-1.8-0.3c-0.5-0.2-1-0.6-1.3-1s-0.5-0.9-0.6-1.4s-0.1-1.4-0.1-2.7
		V9.8c0-1.3,0-2.2,0.1-2.7c0.1-0.5,0.2-1,0.6-1.5c0.3-0.4,0.7-0.8,1.3-1c0.5-0.2,1.2-0.4,1.9-0.4c0.7,0,1.3,0.1,1.8,0.3
		c0.5,0.2,1,0.5,1.3,1s0.5,0.9,0.6,1.4c0.1,0.5,0.1,1.4,0.1,2.7V11.9z M58.9,7.8c0-0.6,0-1-0.1-1.1c-0.1-0.2-0.2-0.2-0.4-0.2
		c-0.2,0-0.3,0.1-0.4,0.2c-0.1,0.1-0.1,0.5-0.1,1.2v5.9c0,0.7,0,1.2,0.1,1.4c0.1,0.2,0.2,0.3,0.4,0.3c0.2,0,0.4-0.1,0.4-0.3
		s0.1-0.7,0.1-1.4V7.8z M69,4.5v2.5l-2.5,7.6H69v2.5h-6.1v-1.8l2.5-8.3h-2.2V4.5L69,4.5z M75.5,4.5l1.9,12.6H74l-0.2-2.3h-1.2
		l-0.2,2.3h-3.4l1.7-12.6L75.5,4.5z M73.8,12.7c-0.2-1.4-0.3-3.2-0.5-5.3c-0.3,2.4-0.5,4.2-0.6,5.3H73.8z M85.8,4.5l-1.9,5.7
		l2.1,6.9h-3.4l-1.3-5.4v5.4H78V4.5h3.3v4.9l1.5-4.9L85.8,4.5z M89.8,4.5v12.6h-3.3V4.5H89.8z M101.7,10h-3.3V7.8c0-0.6,0-1-0.1-1.2
		c-0.1-0.2-0.2-0.2-0.5-0.2c-0.3,0-0.4,0.1-0.5,0.3c-0.1,0.2-0.1,0.6-0.1,1.2v5.9c0,0.6,0,1,0.1,1.2c0.1,0.2,0.2,0.3,0.5,0.3
		c0.2,0,0.4-0.1,0.5-0.3c0.1-0.2,0.1-0.6,0.1-1.3v-1.6h3.3v0.5c0,1.3-0.1,2.2-0.3,2.8c-0.2,0.5-0.6,1-1.2,1.4
		c-0.6,0.4-1.4,0.6-2.3,0.6c-1,0-1.8-0.2-2.4-0.5c-0.6-0.3-1-0.8-1.2-1.4c-0.2-0.6-0.3-1.5-0.3-2.8V9c0-0.9,0-1.6,0.1-2
		c0.1-0.5,0.2-0.9,0.6-1.3c0.3-0.4,0.7-0.8,1.3-1c0.6-0.2,1.2-0.4,1.9-0.4c1,0,1.8,0.2,2.4,0.6c0.6,0.4,1,0.8,1.2,1.4
		c0.2,0.6,0.3,1.4,0.3,2.6L101.7,10z M110.4,11.9c0,1.3,0,2.2-0.1,2.7c-0.1,0.5-0.2,1-0.6,1.4c-0.3,0.4-0.7,0.8-1.3,1
		c-0.5,0.2-1.2,0.4-1.9,0.4c-0.7,0-1.3-0.1-1.8-0.3c-0.5-0.2-1-0.6-1.3-1s-0.5-0.9-0.6-1.4c-0.1-0.5-0.1-1.4-0.1-2.7V9.8
		c0-1.3,0-2.2,0.1-2.7c0.1-0.5,0.2-1,0.6-1.5c0.3-0.4,0.7-0.8,1.3-1c0.5-0.2,1.2-0.4,1.9-0.4c0.7,0,1.3,0.1,1.8,0.3
		c0.5,0.2,1,0.5,1.3,1s0.5,0.9,0.6,1.4c0.1,0.5,0.1,1.4,0.1,2.7L110.4,11.9z M107.1,7.8c0-0.6,0-1-0.1-1.1c-0.1-0.2-0.2-0.2-0.4-0.2
		c-0.2,0-0.3,0.1-0.4,0.2c-0.1,0.1-0.1,0.5-0.1,1.2v5.9c0,0.7,0,1.2,0.1,1.4c0.1,0.2,0.2,0.3,0.4,0.3c0.2,0,0.4-0.1,0.4-0.3
		c0.1-0.2,0.1-0.7,0.1-1.4L107.1,7.8z M113.6,14.6v2.6h-2.4v-2.6H113.6z M117.8,4.5v10.1h2v2.5h-5.3V4.5H117.8z M127.3,4.5v2.5h-2
		v10.1H122V7.1h-1.9V4.5H127.3z M128,4.5h2.5c1.6,0,2.7,0.1,3.2,0.2c0.6,0.1,1,0.4,1.3,0.7c0.3,0.3,0.5,0.7,0.5,1.1
		c0.1,0.4,0.1,1.2,0.1,2.4v4.4c0,1.1-0.1,1.9-0.2,2.3c-0.1,0.4-0.3,0.7-0.6,0.9c-0.3,0.2-0.6,0.4-1,0.5c-0.4,0.1-1,0.1-1.8,0.1H128
		L128,4.5z M131.3,6.7V15c0.5,0,0.8-0.1,0.9-0.3c0.1-0.2,0.2-0.7,0.2-1.6V8.3c0-0.6,0-0.9-0.1-1.1c0-0.2-0.1-0.3-0.2-0.4
		C131.9,6.7,131.7,6.7,131.3,6.7z"/>
	<path class="st0" d="M12.3,3.1L12.3,3.1h0.2c0.3-0.2,0.7-0.4,1.1-0.6l0.3-0.1l-0.3-0.2c-0.4-0.2-0.7-0.4-1.1-0.5l-0.1,0l-0.1,0
		c-0.4,0.1-0.8,0.3-1.1,0.5l-0.3,0.2l0.3,0.1C11.6,2.7,11.9,2.9,12.3,3.1z"/>
	<path class="st0" d="M24.4,10.3c0-2.6-1.4-5.1-3.7-6.4c-1.3-2.3-3.8-3.7-6.4-3.7c-0.6,0-1.3,0.1-1.9,0.2c-0.6-0.2-1.2-0.2-1.9-0.2
		C7.9,0.2,5.4,1.6,4,3.9c-2.3,1.3-3.7,3.8-3.7,6.4c0,0.6,0.1,1.3,0.2,1.9c-0.2,0.6-0.2,1.2-0.2,1.9c0,2.6,1.4,5.1,3.7,6.4
		c1.3,2.3,3.8,3.7,6.4,3.7c0.6,0,1.3-0.1,1.9-0.2c0.6,0.2,1.2,0.2,1.9,0.2c2.6,0,5.1-1.4,6.4-3.7c2.3-1.3,3.7-3.8,3.7-6.4
		c0-0.6-0.1-1.3-0.2-1.9C24.3,11.6,24.4,10.9,24.4,10.3z M21.4,15.8L21.4,15.8L21.3,16c0,0.2,0,0.5,0,0.7c0,1.2-0.3,2.5-0.9,3.6
		c-1.1,0.6-2.3,0.9-3.6,0.9c-0.2,0-0.5,0-0.7,0l-0.1,0L16,21.2c-1,1.2-2.2,2-3.7,2.4c-1.4-0.4-2.7-1.2-3.7-2.4l-0.1-0.1l-0.1,0
		c-0.2,0-0.5,0-0.7,0c-1.2,0-2.5-0.3-3.6-0.9c-0.6-1.1-0.9-2.3-0.9-3.6c0-0.2,0-0.5,0-0.7l0-0.1l-0.1-0.1c-1.2-1-2-2.2-2.4-3.7
		c0.4-1.4,1.2-2.7,2.4-3.7l0.1-0.1l0-0.1c0-0.2,0-0.5,0-0.7c0-1.2,0.3-2.5,0.9-3.6c1.1-0.6,2.3-0.9,3.6-0.9c0.2,0,0.5,0,0.7,0l0.1,0
		l0.1-0.1c1-1.2,2.2-2,3.7-2.4C13.8,1.2,15.1,2,16,3.1l0.1,0.1l0.1,0c0.2,0,0.5,0,0.7,0c1.2,0,2.5,0.3,3.6,0.9
		c0.6,1.1,0.9,2.3,0.9,3.6c0,0.2,0,0.5,0,0.7l0,0.1l0.1,0.1c1.2,1,2,2.2,2.4,3.7C23.4,13.6,22.6,14.9,21.4,15.8z"/>
	<path class="st0" d="M18.7,5.7l0,0.1l0.1,0c0.4,0.1,0.8,0.2,1.2,0.4l0.3,0.1L20.2,6c-0.1-0.4-0.3-0.8-0.4-1.1l0,0l0,0
		c-0.4-0.2-0.8-0.3-1.1-0.4l-0.3-0.1l0.1,0.3C18.5,4.9,18.6,5.3,18.7,5.7z"/>
	<path class="st0" d="M14.9,5.7L14.9,5.7l0.2,0.1c0.3-0.1,0.7-0.1,1-0.2l0.2,0l-0.1-0.2c-0.1-0.4-0.3-0.7-0.6-1.1l-0.1-0.1l-0.1,0
		c-0.4,0.1-0.8,0.2-1.2,0.4l-0.2,0.1l0.1,0.2C14.5,5.2,14.7,5.4,14.9,5.7z"/>
	<path class="st0" d="M21.4,12.2L21.4,12.2c0.3,0.4,0.5,0.8,0.6,1.2l0.1,0.3l0.2-0.3c0.2-0.4,0.4-0.7,0.5-1.1l0-0.1l0-0.1
		c-0.1-0.4-0.3-0.8-0.5-1.1l-0.2-0.3L22,11C21.8,11.4,21.6,11.7,21.4,12.2L21.4,12.2z"/>
	<path class="st0" d="M19.1,8.3l-0.2-0.1l0,0.2c0,0.3-0.1,0.7-0.2,1l0,0.1l0.1,0.1c0.3,0.2,0.6,0.4,0.8,0.6l0.2,0.1l0.1-0.2
		c0.2-0.4,0.3-0.8,0.4-1.2l0-0.1l-0.1-0.1C19.9,8.6,19.5,8.4,19.1,8.3z"/>
	<path class="st0" d="M15.9,7.9L16,8.1c0,0.1,0,0.2,0.1,0.3l0,0.1l0.1,0c0.1,0,0.2,0,0.3,0.1l0.2,0.1l0-0.2c0-0.1,0-0.2,0-0.4l0-0.2
		l-0.2,0c-0.1,0-0.2,0-0.4,0L15.9,7.9z"/>
	<path class="st0" d="M18.8,18.5l-0.1,0l0,0.1c-0.1,0.4-0.2,0.8-0.4,1.2l-0.1,0.3l0.3-0.1c0.4-0.1,0.8-0.3,1.1-0.4l0,0l0,0
		c0.2-0.4,0.3-0.8,0.4-1.1l0.1-0.3L20,18.1C19.6,18.3,19.2,18.4,18.8,18.5z"/>
	<path class="st0" d="M19.9,14.2L19.8,14l-0.2,0.1c-0.3,0.2-0.5,0.4-0.8,0.6l-0.1,0.1l0,0.1c0.1,0.3,0.1,0.7,0.2,1l0,0.2l0.2-0.1
		c0.4-0.1,0.7-0.3,1.1-0.6l0.1-0.1l0-0.1C20.2,15,20.1,14.6,19.9,14.2z"/>
	<path class="st0" d="M18.5,12.2L18.3,12c-0.1-0.1-0.2-0.2-0.3-0.2l-0.2-0.1l-0.1,0.2c0,0.1-0.1,0.2-0.1,0.2l-0.1,0.1l0.1,0.1
		c0,0.1,0.1,0.2,0.1,0.2l0.1,0.2l0.2-0.1c0.1-0.1,0.2-0.2,0.3-0.2L18.5,12.2z"/>
	<path class="st0" d="M17.6,10l-0.1-0.1c-0.7-0.3-1.4-0.6-2.2-0.7c-0.1-0.8-0.3-1.5-0.7-2.2l-0.1-0.1L14.4,7c-0.7,0.3-1.4,0.6-2,1.1
		c-0.6-0.5-1.3-0.8-2-1.1l-0.1-0.1l-0.1,0.1C9.8,7.8,9.6,8.5,9.5,9.3C8.7,9.4,8,9.6,7.3,9.9L7.1,10l0.1,0.1c0.3,0.7,0.6,1.4,1.1,2
		c-0.5,0.6-0.8,1.3-1.1,2l-0.1,0.1l0.1,0.1C8,14.7,8.7,15,9.5,15.1c0.1,0.8,0.3,1.5,0.7,2.2l0.1,0.1l0.1-0.1c0.7-0.3,1.4-0.6,2-1.1
		c0.6,0.5,1.3,0.8,2,1.1l0.1,0.1l0.1-0.1c0.3-0.7,0.6-1.4,0.7-2.2c0.8-0.1,1.5-0.3,2.2-0.7l0.1-0.1l-0.1-0.1c-0.3-0.7-0.6-1.4-1.1-2
		c0.5-0.6,0.8-1.3,1.1-2L17.6,10z M14,13.9c-0.5,0.3-1.1,0.5-1.7,0.7c-0.6-0.2-1.2-0.4-1.7-0.7c-0.3-0.5-0.5-1.1-0.7-1.7
		c0.2-0.6,0.4-1.2,0.7-1.7c0.5-0.3,1.1-0.5,1.7-0.7c0.6,0.2,1.2,0.4,1.7,0.7c0.3,0.5,0.5,1.1,0.7,1.7C14.6,12.8,14.4,13.3,14,13.9z"
		/>
	<path class="st0" d="M12.5,21.2L12.5,21.2h-0.2c-0.3,0.2-0.7,0.4-1.1,0.6l-0.3,0.1l0.3,0.2c0.4,0.2,0.7,0.4,1.1,0.5l0.1,0l0.1,0
		c0.4-0.1,0.8-0.3,1.1-0.5l0.3-0.2l-0.3-0.1C13.2,21.6,12.8,21.4,12.5,21.2z"/>
	<path class="st0" d="M15.1,18.5l-0.1,0l-0.1,0.1c-0.2,0.3-0.4,0.6-0.6,0.8l-0.1,0.2l0.2,0.1c0.4,0.2,0.8,0.3,1.2,0.4l0.1,0l0.1-0.1
		c0.2-0.3,0.4-0.7,0.6-1.1l0.1-0.2l-0.2,0C15.8,18.7,15.4,18.6,15.1,18.5z"/>
	<path class="st0" d="M16.7,15.9l0-0.2l-0.2,0.1c-0.1,0-0.2,0-0.3,0.1l-0.1,0l0,0.1c0,0.1,0,0.2-0.1,0.3l-0.1,0.2l0.2,0
		c0.1,0,0.2,0,0.4,0l0.2,0l0-0.2C16.7,16.2,16.7,16.1,16.7,15.9z"/>
	<path class="st0" d="M6,18.6l0-0.1l-0.1,0c-0.4-0.1-0.8-0.2-1.2-0.4L4.4,18l0.1,0.3c0.1,0.4,0.3,0.8,0.4,1.1l0,0l0,0
		c0.4,0.2,0.8,0.3,1.1,0.4l0.3,0.1l-0.1-0.3C6.2,19.4,6.1,19,6,18.6z"/>
	<path class="st0" d="M9.8,18.6L9.8,18.6l-0.2-0.1c-0.3,0.1-0.7,0.1-1,0.2l-0.2,0l0.1,0.2C8.6,19.3,8.8,19.7,9,20l0.1,0.1l0.1,0
		c0.4-0.1,0.8-0.2,1.2-0.4l0.2-0.1l-0.1-0.2C10.2,19.2,10,18.9,9.8,18.6z"/>
	<path class="st0" d="M12.4,18.3l0.1-0.1c0.1-0.1,0.2-0.2,0.2-0.3l0.1-0.2l-0.2-0.1c-0.1,0-0.2-0.1-0.2-0.1l-0.1-0.1l-0.1,0.1
		c-0.1,0-0.2,0.1-0.2,0.1l-0.2,0.1l0.1,0.2c0.1,0.1,0.2,0.2,0.2,0.3L12.4,18.3z"/>
	<path class="st0" d="M5.9,5.8l0.1,0l0-0.1c0.1-0.4,0.2-0.8,0.4-1.2l0.1-0.3L6.2,4.3C5.8,4.4,5.4,4.6,5,4.8l0,0l0,0
		C4.8,5.2,4.6,5.6,4.5,6L4.4,6.3l0.3-0.1C5.1,6.1,5.5,5.9,5.9,5.8z"/>
	<path class="st0" d="M9.6,5.8l0.1,0l0.1-0.1c0.2-0.3,0.4-0.6,0.6-0.8l0.1-0.2l-0.2-0.1C10,4.5,9.6,4.3,9.2,4.2l-0.1,0L9,4.3
		C8.8,4.7,8.6,5,8.5,5.4L8.4,5.6l0.2,0C8.9,5.7,9.3,5.7,9.6,5.8z"/>
	<path class="st0" d="M12.4,6.1l-0.1,0.1c-0.1,0.1-0.2,0.2-0.2,0.3l-0.1,0.2L12,6.7c0.1,0,0.2,0.1,0.2,0.1l0.1,0.1l0.1-0.1
		c0.1,0,0.2-0.1,0.2-0.1l0.2-0.1l-0.1-0.2c-0.1-0.1-0.2-0.2-0.2-0.3L12.4,6.1z"/>
	<path class="st0" d="M2.8,11l-0.1-0.3L2.5,11c-0.2,0.4-0.4,0.7-0.5,1.1l0,0.1l0,0.1c0.1,0.4,0.3,0.8,0.5,1.1l0.2,0.3l0.1-0.3
		c0.2-0.4,0.4-0.7,0.6-1.1l0.1-0.1l-0.1-0.1C3.1,11.7,2.9,11.4,2.8,11z"/>
	<path class="st0" d="M4.8,10.2l0.1,0.2l0.2-0.1C5.3,10,5.6,9.8,5.9,9.6L6,9.5l0-0.1c-0.1-0.3-0.1-0.7-0.2-1l0-0.2L5.6,8.3
		C5.2,8.4,4.9,8.6,4.5,8.8L4.4,8.9l0,0.1C4.5,9.4,4.7,9.8,4.8,10.2z"/>
	<path class="st0" d="M8.1,8.4l0,0.2l0.2-0.1c0.1,0,0.2,0,0.3-0.1l0.1,0l0-0.1c0-0.1,0-0.2,0.1-0.3l0.1-0.2l-0.2,0
		c-0.1,0-0.2,0-0.4,0L8,7.8L8,8C8,8.2,8.1,8.3,8.1,8.4z"/>
	<path class="st0" d="M5.6,16.1l0.2,0.1l0-0.2c0-0.3,0.1-0.7,0.2-1l0-0.1l-0.1-0.1c-0.3-0.2-0.6-0.4-0.8-0.6L4.9,14l-0.1,0.2
		c-0.2,0.4-0.3,0.8-0.4,1.2l0,0.1l0.1,0.1C4.9,15.8,5.2,15.9,5.6,16.1z"/>
	<path class="st0" d="M6.9,11.9l-0.1-0.2l-0.2,0.1C6.6,11.9,6.5,12,6.4,12l-0.1,0.1l0.1,0.1c0.1,0.1,0.2,0.2,0.3,0.2l0.2,0.1
		l0.1-0.2c0-0.1,0.1-0.2,0.1-0.2l0.1-0.1l-0.1-0.1C7,12,7,11.9,6.9,11.9z"/>
	<path class="st0" d="M8.8,16.4l-0.1-0.2c0-0.1,0-0.2-0.1-0.3l0-0.1l-0.1,0c-0.1,0-0.2,0-0.3-0.1l-0.2-0.1l0,0.2c0,0.1,0,0.2,0,0.4
		l0,0.2l0.2,0c0.1,0,0.2,0,0.4,0L8.8,16.4z"/>
	<path class="st0" d="M13.4,11.2L13.4,11.2L13.4,11.2c-0.4-0.2-0.7-0.3-1-0.4l-0.1,0l-0.1,0c-0.3,0.1-0.6,0.2-0.9,0.4l0,0l0,0
		c-0.1,0.3-0.3,0.6-0.4,0.9l0,0.1l0,0.1c0.1,0.3,0.2,0.6,0.4,0.9l0,0l0,0c0.3,0.1,0.6,0.3,0.9,0.4l0.1,0l0.1,0
		c0.3-0.1,0.6-0.2,0.9-0.4l0,0l0,0c0.1-0.3,0.3-0.6,0.4-0.9l0-0.1l0-0.1C13.6,11.8,13.5,11.5,13.4,11.2z"/>
</g>
</svg>
